# xmcd
#
# Track frame offsets:
#	182
#	1362
#	14012
#	32932
#	48992
#	52777
#	69827
#	82465
#	108710
#	110382
#	129100
#	143347
#	161995
#	166002
#	182125
#	200475
#	201667
#	223457
#
# Disc length: 3006 seconds
#
# Revision: 3
# Processed by: cddbd v1.5.1PL0 Copyright (c) Steve Scherf et al.
# Submitted via: CDDB.pm 1.12
#
DISCID=070bbc12
DTITLE=Jools Holland and his Rhythm and Blues Orchestra - Sex and Jazz and Rock and Roll
DYEAR=1996
DGENRE=Jazz
TTITLE0=Jubals Discovery
TTITLE1=Hamsters Wheel
TTITLE2=Waiting Game
TTITLE3=Able Mabel
TTITLE4=U.J.
TTITLE5=I, is All I Ever Hear
TTITLE6=Instrumental Love
TTITLE7=Atom Bomb
TTITLE8=Rab Elpmet
TTITLE9=Scorpio Rising
TTITLE10=Well Alright
TTITLE11=Count to Ten
TTITLE12=Escaped Stripe
TTITLE13=I Love a Train
TTITLE14=Wang Dang Doodle
TTITLE15=Martians Playing Boogie Woogie
TTITLE16=Lonesome Joe
TTITLE17=Absit Invidia
EXTD=
EXTT0=
EXTT1=
EXTT2=
EXTT3=
EXTT4=
EXTT5=
EXTT6=
EXTT7=
EXTT8=
EXTT9=
EXTT10=
EXTT11=
EXTT12=
EXTT13=
EXTT14=
EXTT15=
EXTT16=
EXTT17=
PLAYORDER=
